<svg t="1590131481625" class="icon" viewBox="0 0 1024 1024" version="1.1" xmlns="http://www.w3.org/2000/svg" p-id="11461" data-spm-anchor-id="a313x.7781069.0.i5" width="200" height="200"><path d="M682.666667 522.666667l-362.666667-362.666667c-8.533333-8.533333-8.533333-21.333333 0-29.866667 8.533333-8.533333 21.333333-8.533333 29.866667 0l362.666666 362.666667c8.533333 8.533333 8.533333 21.333333 0 29.866667-6.4 6.4-21.333333 6.4-29.866666 0z" p-id="11462" data-spm-anchor-id="a313x.7781069.0.i6" class="" fill="#ffffff"></path><path d="M322.133333 853.333333l362.666667-362.666666c8.533333-8.533333 21.333333-8.533333 29.866667 0 8.533333 8.533333 8.533333 21.333333 0 29.866666l-362.666667 362.666667c-8.533333 8.533333-21.333333 8.533333-29.866667 0-8.533333-6.4-8.533333-21.333333 0-29.866667z" p-id="11463" data-spm-anchor-id="a313x.7781069.0.i7" class="" fill="#ffffff"></path></svg>