<svg t="1590131548343" class="icon" viewBox="0 0 1024 1024" version="1.1" xmlns="http://www.w3.org/2000/svg" p-id="11624" width="200" height="200"><path d="M352 492.8l362.666667 362.666667c8.533333 8.533333 8.533333 21.333333 0 29.866666-8.533333 8.533333-21.333333 8.533333-29.866667 0l-362.666667-362.666666c-8.533333-8.533333-8.533333-21.333333 0-29.866667 6.4-8.533333 21.333333-8.533333 29.866667 0z" p-id="11625" fill="#ffffff"></path><path d="M712.533333 160l-362.666666 362.666667c-8.533333 8.533333-21.333333 8.533333-29.866667 0-8.533333-8.533333-8.533333-21.333333 0-29.866667l362.666667-362.666667c8.533333-8.533333 21.333333-8.533333 29.866666 0 8.533333 8.533333 8.533333 21.333333 0 29.866667z" p-id="11626" fill="#ffffff"></path></svg>